<svg width="26" height="25" viewBox="0 0 26 25" fill="none" xmlns="http://www.w3.org/2000/svg">
<path d="M7.17578 0.199219C7.41276 0.199219 7.61328 0.290365 7.77734 0.472656C7.95964 0.636719 8.05078 0.83724 8.05078 1.07422V2.55078H17.9492V1.07422C17.9492 0.83724 18.0312 0.636719 18.1953 0.472656C18.3776 0.290365 18.5872 0.199219 18.8242 0.199219C19.0794 0.199219 19.2891 0.290365 19.4531 0.472656C19.6172 0.636719 19.6992 0.83724 19.6992 1.07422V2.55078H22.9258C23.6367 2.55078 24.2474 2.80599 24.7578 3.31641C25.2865 3.82682 25.5508 4.44661 25.5508 5.17578V21.5C25.5508 22.2292 25.2865 22.849 24.7578 23.3594C24.2474 23.8698 23.6367 24.125 22.9258 24.125H3.07422C2.36328 24.125 1.74349 23.8698 1.21484 23.3594C0.704427 22.849 0.449219 22.2292 0.449219 21.5V5.17578C0.449219 4.44661 0.704427 3.82682 1.21484 3.31641C1.74349 2.80599 2.36328 2.55078 3.07422 2.55078H6.30078V1.07422C6.30078 0.83724 6.38281 0.636719 6.54688 0.472656C6.71094 0.290365 6.92057 0.199219 7.17578 0.199219ZM17.9492 4.30078H8.05078V5.75C8.05078 5.98698 7.95964 6.19661 7.77734 6.37891C7.61328 6.54297 7.41276 6.625 7.17578 6.625C6.92057 6.625 6.71094 6.54297 6.54688 6.37891C6.38281 6.19661 6.30078 5.98698 6.30078 5.75V4.30078H3.07422C2.83724 4.30078 2.6276 4.38281 2.44531 4.54688C2.28125 4.71094 2.19922 4.92057 2.19922 5.17578V8.375H23.8008V5.17578C23.8008 4.92057 23.7096 4.71094 23.5273 4.54688C23.3633 4.38281 23.1628 4.30078 22.9258 4.30078H19.6992V5.75C19.6992 5.98698 19.6172 6.19661 19.4531 6.37891C19.2891 6.54297 19.0794 6.625 18.8242 6.625C18.5872 6.625 18.3776 6.54297 18.1953 6.37891C18.0312 6.19661 17.9492 5.98698 17.9492 5.75V4.30078ZM2.19922 10.125V21.5C2.19922 21.737 2.28125 21.9466 2.44531 22.1289C2.6276 22.293 2.83724 22.375 3.07422 22.375H22.9258C23.1628 22.375 23.3633 22.293 23.5273 22.1289C23.7096 21.9466 23.8008 21.737 23.8008 21.5V10.125H2.19922ZM8.32422 13.9258C8.32422 13.5977 8.20573 13.3242 7.96875 13.1055C7.75 12.8685 7.48568 12.75 7.17578 12.75C6.84766 12.75 6.5651 12.8685 6.32812 13.1055C6.10938 13.3242 6 13.5977 6 13.9258C6 14.2357 6.10938 14.5091 6.32812 14.7461C6.5651 14.9648 6.84766 15.0742 7.17578 15.0742C7.48568 15.0742 7.75 14.9648 7.96875 14.7461C8.20573 14.5091 8.32422 14.2357 8.32422 13.9258ZM13 15.0742C12.6719 15.0742 12.3893 14.9648 12.1523 14.7461C11.9336 14.5091 11.8242 14.2357 11.8242 13.9258C11.8242 13.5977 11.9336 13.3242 12.1523 13.1055C12.3893 12.8685 12.6719 12.75 13 12.75C13.3281 12.75 13.6016 12.8685 13.8203 13.1055C14.0573 13.3242 14.1758 13.5977 14.1758 13.9258C14.1758 14.2357 14.0573 14.5091 13.8203 14.7461C13.6016 14.9648 13.3281 15.0742 13 15.0742ZM20 13.9258C20 13.5977 19.8815 13.3242 19.6445 13.1055C19.4258 12.8685 19.1523 12.75 18.8242 12.75C18.5143 12.75 18.2409 12.8685 18.0039 13.1055C17.7852 13.3242 17.6758 13.5977 17.6758 13.9258C17.6758 14.2357 17.7852 14.5091 18.0039 14.7461C18.2409 14.9648 18.5143 15.0742 18.8242 15.0742C19.1523 15.0742 19.4258 14.9648 19.6445 14.7461C19.8815 14.5091 20 14.2357 20 13.9258ZM7.17578 19.75C6.84766 19.75 6.5651 19.6406 6.32812 19.4219C6.10938 19.1849 6 18.9023 6 18.5742C6 18.2643 6.10938 18 6.32812 17.7812C6.5651 17.5443 6.84766 17.4258 7.17578 17.4258C7.48568 17.4258 7.75 17.5443 7.96875 17.7812C8.20573 18 8.32422 18.2643 8.32422 18.5742C8.32422 18.9023 8.20573 19.1849 7.96875 19.4219C7.75 19.6406 7.48568 19.75 7.17578 19.75ZM14.1758 18.5742C14.1758 18.2643 14.0573 18 13.8203 17.7812C13.6016 17.5443 13.3281 17.4258 13 17.4258C12.6719 17.4258 12.3893 17.5443 12.1523 17.7812C11.9336 18 11.8242 18.2643 11.8242 18.5742C11.8242 18.9023 11.9336 19.1849 12.1523 19.4219C12.3893 19.6406 12.6719 19.75 13 19.75C13.3281 19.75 13.6016 19.6406 13.8203 19.4219C14.0573 19.1849 14.1758 18.9023 14.1758 18.5742ZM18.8242 19.75C18.5143 19.75 18.2409 19.6406 18.0039 19.4219C17.7852 19.1849 17.6758 18.9023 17.6758 18.5742C17.6758 18.2643 17.7852 18 18.0039 17.7812C18.2409 17.5443 18.5143 17.4258 18.8242 17.4258C19.1523 17.4258 19.4258 17.5443 19.6445 17.7812C19.8815 18 20 18.2643 20 18.5742C20 18.9023 19.8815 19.1849 19.6445 19.4219C19.4258 19.6406 19.1523 19.75 18.8242 19.75Z" fill="#003D58"/>
</svg>
