<svg width="20" height="20" viewBox="0 0 20 20" fill="none" xmlns="http://www.w3.org/2000/svg">
<path d="M14.6094 13.9805C14.7266 14.0977 14.7852 14.2474 14.7852 14.4297C14.7852 14.599 14.7266 14.7422 14.6094 14.8594C14.4922 14.9766 14.3424 15.0352 14.1602 15.0352C13.9909 15.0352 13.8477 14.9766 13.7305 14.8594L10 11.1289L6.26953 14.8594C6.15234 14.9766 6.0026 15.0352 5.82031 15.0352C5.65104 15.0352 5.50781 14.9766 5.39062 14.8594C5.27344 14.7422 5.21484 14.599 5.21484 14.4297C5.21484 14.2474 5.27344 14.0977 5.39062 13.9805L9.12109 10.25L5.39062 6.51953C5.27344 6.40234 5.21484 6.25911 5.21484 6.08984C5.21484 5.90755 5.27344 5.75781 5.39062 5.64062C5.50781 5.52344 5.65104 5.46484 5.82031 5.46484C6.0026 5.46484 6.15234 5.52344 6.26953 5.64062L10 9.37109L13.7305 5.64062C13.8477 5.52344 13.9909 5.46484 14.1602 5.46484C14.3424 5.46484 14.4922 5.52344 14.6094 5.64062C14.7266 5.75781 14.7852 5.90755 14.7852 6.08984C14.7852 6.25911 14.7266 6.40234 14.6094 6.51953L10.8789 10.25L14.6094 13.9805Z" fill="#0C0F1E"/>
</svg>
