<svg width="22" height="27" viewBox="0 0 22 27" fill="none" xmlns="http://www.w3.org/2000/svg">
<path d="M9.41406 6.42188C9.79688 6.25781 10.1888 6.15755 10.5898 6.12109C11.0091 6.08464 11.4193 6.10286 11.8203 6.17578C12.2214 6.2487 12.6042 6.38542 12.9688 6.58594C13.3333 6.78646 13.6523 7.03255 13.9258 7.32422C14.2174 7.59766 14.4635 7.91667 14.6641 8.28125C14.8646 8.64583 15.0013 9.02865 15.0742 9.42969C15.1471 9.83073 15.1654 10.2409 15.1289 10.6602C15.0924 11.0612 14.9922 11.4531 14.8281 11.8359C14.6823 12.2188 14.4727 12.5742 14.1992 12.9023C13.944 13.2122 13.6432 13.4766 13.2969 13.6953C12.9688 13.9323 12.6042 14.1146 12.2031 14.2422C11.8203 14.3516 11.4193 14.4062 11 14.4062C10.4531 14.4062 9.92448 14.306 9.41406 14.1055C8.90365 13.8867 8.45703 13.5768 8.07422 13.1758C7.67318 12.793 7.36328 12.3464 7.14453 11.8359C6.94401 11.3255 6.84375 10.7969 6.84375 10.25C6.84375 9.83073 6.89844 9.42969 7.00781 9.04688C7.13542 8.64583 7.31771 8.28125 7.55469 7.95312C7.77344 7.60677 8.03776 7.30599 8.34766 7.05078C8.67578 6.77734 9.03125 6.56771 9.41406 6.42188ZM11.5469 7.46094C11.2734 7.40625 10.9909 7.39714 10.6992 7.43359C10.4258 7.45182 10.1615 7.51562 9.90625 7.625C9.65104 7.73438 9.41406 7.88021 9.19531 8.0625C8.97656 8.22656 8.79427 8.42708 8.64844 8.66406C8.48438 8.90104 8.35677 9.15625 8.26562 9.42969C8.19271 9.70312 8.15625 9.97656 8.15625 10.25C8.15625 10.6328 8.22917 10.9974 8.375 11.3438C8.52083 11.6901 8.72135 12 8.97656 12.2734C9.25 12.5286 9.5599 12.7292 9.90625 12.875C10.2526 13.0208 10.6172 13.0938 11 13.0938C11.2734 13.0938 11.5469 13.0573 11.8203 12.9844C12.0938 12.8932 12.349 12.7656 12.5859 12.6016C12.8229 12.4557 13.0234 12.2734 13.1875 12.0547C13.3698 11.8359 13.5156 11.599 13.625 11.3438C13.7344 11.0885 13.7982 10.8242 13.8164 10.5508C13.8529 10.2591 13.8438 9.97656 13.7891 9.70312C13.7344 9.42969 13.6341 9.16536 13.4883 8.91016C13.3607 8.65495 13.2057 8.42708 13.0234 8.22656C12.8229 8.04427 12.5951 7.88932 12.3398 7.76172C12.0846 7.61589 11.8203 7.51562 11.5469 7.46094ZM11 2.15625C9.79688 2.15625 8.64844 2.375 7.55469 2.8125C6.46094 3.25 5.49479 3.86979 4.65625 4.67188C3.81771 5.47396 3.17057 6.39453 2.71484 7.43359C2.25911 8.47266 2.03125 9.55729 2.03125 10.6875C2.03125 11.3802 2.15885 12.1276 2.41406 12.9297C2.66927 13.7135 3.01562 14.5247 3.45312 15.3633C3.89062 16.2018 4.39193 17.0404 4.95703 17.8789C5.52214 18.6992 6.10547 19.4831 6.70703 20.2305C7.29036 20.9961 7.86458 21.707 8.42969 22.3633C9.01302 23.0013 9.52344 23.5573 9.96094 24.0312C10.1797 24.25 10.3711 24.4505 10.5352 24.6328C10.7174 24.7969 10.8724 24.9427 11 25.0703C11.1276 24.9427 11.2734 24.7969 11.4375 24.6328C11.6198 24.4505 11.8203 24.25 12.0391 24.0312C12.4766 23.5573 12.9779 23.0013 13.543 22.3633C14.1263 21.707 14.7096 20.9961 15.293 20.2305C15.8945 19.4831 16.4779 18.6992 17.043 17.8789C17.6081 17.0404 18.1094 16.2018 18.5469 15.3633C18.9844 14.5247 19.3307 13.7135 19.5859 12.9297C19.8411 12.1276 19.9688 11.3802 19.9688 10.6875C19.9688 9.55729 19.7409 8.47266 19.2852 7.43359C18.8294 6.39453 18.1823 5.47396 17.3438 4.67188C16.5052 3.86979 15.5391 3.25 14.4453 2.8125C13.3516 2.375 12.2031 2.15625 11 2.15625ZM11 26C10.7812 26.237 10.6445 26.3737 10.5898 26.4102C10.5534 26.4466 10.5352 26.4648 10.5352 26.4648L10.5078 26.4375C10.5078 26.4375 10.4987 26.4284 10.4805 26.4102C10.4622 26.3919 10.444 26.3737 10.4258 26.3555C10.3893 26.319 10.3438 26.2734 10.2891 26.2188C10.2526 26.1823 10.1979 26.1276 10.125 26.0547C9.9974 25.9271 9.83333 25.7721 9.63281 25.5898C9.45052 25.3893 9.25 25.1615 9.03125 24.9062C8.57552 24.4323 8.05599 23.8672 7.47266 23.2109C6.88932 22.5365 6.28776 21.8164 5.66797 21.0508C5.06641 20.2669 4.46484 19.4466 3.86328 18.5898C3.27995 17.7331 2.76042 16.8581 2.30469 15.9648C1.83073 15.0898 1.44792 14.2057 1.15625 13.3125C0.864583 12.401 0.71875 11.526 0.71875 10.6875C0.71875 9.375 0.983073 8.11719 1.51172 6.91406C2.04036 5.71094 2.78776 4.64453 3.75391 3.71484C4.70182 2.80339 5.80469 2.10156 7.0625 1.60938C8.32031 1.09896 9.63281 0.84375 11 0.84375C12.3672 0.84375 13.6797 1.09896 14.9375 1.60938C16.1953 2.10156 17.2982 2.80339 18.2461 3.71484C19.2122 4.64453 19.9596 5.71094 20.4883 6.91406C21.0169 8.11719 21.2812 9.375 21.2812 10.6875C21.2812 11.526 21.1354 12.401 20.8438 13.3125C20.5521 14.2057 20.1693 15.0898 19.6953 15.9648C19.2396 16.8581 18.7109 17.7331 18.1094 18.5898C17.526 19.4466 16.9336 20.2669 16.332 21.0508C15.7122 21.8164 15.1107 22.5365 14.5273 23.2109C13.944 23.8672 13.4245 24.4323 12.9688 24.9062C12.75 25.1615 12.5404 25.3893 12.3398 25.5898C12.1576 25.7721 12.0026 25.9271 11.875 26.0547C11.8021 26.1276 11.7383 26.1823 11.6836 26.2188C11.6471 26.2734 11.6107 26.319 11.5742 26.3555C11.556 26.3737 11.5378 26.3828 11.5195 26.3828C11.5195 26.401 11.5195 26.4102 11.5195 26.4102C11.5013 26.4284 11.4922 26.4375 11.4922 26.4375L11.4648 26.4648C11.4648 26.4648 11.4375 26.4466 11.3828 26.4102C11.3464 26.3737 11.2188 26.237 11 26ZM11 26L11.4648 26.4648C11.3372 26.5924 11.1823 26.6562 11 26.6562C10.8177 26.6562 10.6628 26.5924 10.5352 26.4648L11 26Z" fill="#003D58"/>
</svg>
