<svg width="26" height="20" viewBox="0 0 26 20" fill="none" xmlns="http://www.w3.org/2000/svg">
<path d="M0.175781 2.75C0.175781 2.11198 0.403646 1.5651 0.859375 1.10938C1.3151 0.653646 1.86198 0.425781 2.5 0.425781H23.5C24.138 0.425781 24.6849 0.653646 25.1406 1.10938C25.5964 1.5651 25.8242 2.11198 25.8242 2.75V16.75C25.8242 17.388 25.5964 17.9349 25.1406 18.3906C24.6849 18.8464 24.138 19.0742 23.5 19.0742H2.5C1.86198 19.0742 1.3151 18.8464 0.859375 18.3906C0.403646 17.9349 0.175781 17.388 0.175781 16.75V2.75ZM2.5 2.17578C2.42708 2.17578 2.36328 2.1849 2.30859 2.20312C2.25391 2.22135 2.19922 2.2487 2.14453 2.28516L9.17188 7.89062C10.2839 8.78385 11.5599 9.23047 13 9.23047C14.4401 9.23047 15.7161 8.78385 16.8281 7.89062L23.8555 2.28516C23.8008 2.2487 23.7461 2.22135 23.6914 2.20312C23.6367 2.1849 23.5729 2.17578 23.5 2.17578H2.5ZM1.92578 4.33594V16.75C1.92578 16.9141 1.98047 17.0508 2.08984 17.1602C2.19922 17.2695 2.33594 17.3242 2.5 17.3242H23.5C23.6641 17.3242 23.8008 17.2695 23.9102 17.1602C24.0195 17.0508 24.0742 16.9141 24.0742 16.75V4.33594L17.9219 9.25781C17.1927 9.84115 16.4089 10.2786 15.5703 10.5703C14.7318 10.8438 13.875 10.9805 13 10.9805C12.125 10.9805 11.2682 10.8438 10.4297 10.5703C9.59115 10.2786 8.80729 9.84115 8.07812 9.25781L1.92578 4.33594Z" fill="#003D58"/>
</svg>
