<svg width="24" height="24" viewBox="0 0 24 24" fill="none" xmlns="http://www.w3.org/2000/svg">
<path d="M3.14062 1.14062C3.65104 0.630208 4.27083 0.375 5 0.375C5.72917 0.375 6.34896 0.630208 6.85938 1.14062L9.94922 4.23047C10.2044 4.48568 10.3958 4.77734 10.5234 5.10547C10.651 5.41536 10.7148 5.74349 10.7148 6.08984C10.7148 6.4362 10.651 6.77344 10.5234 7.10156C10.3958 7.42969 10.2044 7.71224 9.94922 7.94922C9.78516 8.11328 9.70312 8.32292 9.70312 8.57812C9.70312 8.8151 9.78516 9.01562 9.94922 9.17969L14.8984 14.1289C15.0625 14.3112 15.263 14.4023 15.5 14.4023C15.7552 14.4023 15.9648 14.3112 16.1289 14.1289C16.3841 13.8919 16.6667 13.7096 16.9766 13.582C17.3047 13.4362 17.6419 13.3633 17.9883 13.3633C18.3346 13.3633 18.6719 13.4362 19 13.582C19.3281 13.7096 19.6107 13.8919 19.8477 14.1289L22.9375 17.2188C23.1927 17.474 23.3841 17.7656 23.5117 18.0938C23.6393 18.4036 23.7031 18.7318 23.7031 19.0781C23.7031 19.4245 23.6393 19.7617 23.5117 20.0898C23.3841 20.3997 23.1927 20.6823 22.9375 20.9375L22.1992 21.6758C21.2148 22.6602 20.0208 23.2435 18.6172 23.4258C17.2135 23.5898 15.9102 23.3073 14.707 22.5781C14.6888 22.5599 14.6615 22.5508 14.625 22.5508C14.6068 22.5326 14.5885 22.5143 14.5703 22.4961C13.2943 21.6393 12.0638 20.7188 10.8789 19.7344C9.69401 18.75 8.55469 17.7201 7.46094 16.6445C6.38542 15.5508 5.35547 14.4115 4.37109 13.2266C3.38672 12.0417 2.46615 10.8112 1.60938 9.53516L1.58203 9.50781C0.816406 8.28646 0.50651 6.96484 0.652344 5.54297C0.816406 4.12109 1.40885 2.89974 2.42969 1.87891L3.14062 1.14062ZM15.4453 20.9648C15.4453 20.9831 15.4544 21.0013 15.4727 21.0195C15.4909 21.0195 15.5091 21.0195 15.5273 21.0195C16.3841 21.5846 17.3229 21.8125 18.3438 21.7031C19.3646 21.5755 20.2396 21.1562 20.9688 20.4453L21.707 19.707C21.7799 19.6159 21.8346 19.5156 21.8711 19.4062C21.9258 19.2969 21.9531 19.1875 21.9531 19.0781C21.9531 18.9688 21.9258 18.8594 21.8711 18.75C21.8346 18.6406 21.7799 18.5404 21.707 18.4492L18.6172 15.3594C18.526 15.2865 18.4258 15.2318 18.3164 15.1953C18.2253 15.1406 18.1159 15.1133 17.9883 15.1133C17.8789 15.1133 17.7695 15.1406 17.6602 15.1953C17.5508 15.2318 17.4596 15.2865 17.3867 15.3594C16.8581 15.888 16.2292 16.1523 15.5 16.1523C14.7891 16.1523 14.1784 15.888 13.668 15.3594L8.71875 10.4102C8.20833 9.89974 7.95312 9.28906 7.95312 8.57812C7.95312 7.84896 8.20833 7.22917 8.71875 6.71875C8.8099 6.6276 8.8737 6.53646 8.91016 6.44531C8.94661 6.33594 8.96484 6.21745 8.96484 6.08984C8.96484 5.98047 8.94661 5.87109 8.91016 5.76172C8.8737 5.65234 8.8099 5.5612 8.71875 5.48828L5.62891 2.39844C5.44661 2.21615 5.23698 2.125 5 2.125C4.76302 2.125 4.5625 2.20703 4.39844 2.37109V2.39844L3.66016 3.10938C2.93099 3.83854 2.51172 4.71354 2.40234 5.73438C2.29297 6.75521 2.51172 7.69401 3.05859 8.55078C3.87891 9.77214 4.76302 10.957 5.71094 12.1055C6.64062 13.2357 7.625 14.3203 8.66406 15.3594C9.70312 16.3984 10.7878 17.3828 11.918 18.3125C13.0482 19.2604 14.224 20.1445 15.4453 20.9648Z" fill="#003D58"/>
</svg>
