<svg width="38" height="37" viewBox="0 0 38 37" fill="none" xmlns="http://www.w3.org/2000/svg">
<path d="M18.3125 4.05469L14.1016 15.0977C14.0156 15.3841 13.8438 15.6133 13.5859 15.7852C13.3568 15.9284 13.099 16 12.8125 16H4.60547C4.57682 16 4.5625 16 4.5625 16C4.5625 16 4.54818 16 4.51953 16C4.40495 16 4.29036 16.043 4.17578 16.1289C4.0612 16.1862 3.97526 16.2721 3.91797 16.3867C3.86068 16.5013 3.84635 16.6302 3.875 16.7734C3.90365 16.888 3.96094 16.9883 4.04688 17.0742L11.0938 22.0156C11.3802 22.1875 11.5664 22.431 11.6523 22.7461C11.7383 23.0612 11.7096 23.3763 11.5664 23.6914L7.61328 32.7578C7.55599 32.901 7.54167 33.0586 7.57031 33.2305C7.6276 33.4023 7.71354 33.5312 7.82812 33.6172C7.94271 33.7318 8.08594 33.8034 8.25781 33.832C8.42969 33.832 8.58724 33.8034 8.73047 33.7461L8.77344 33.7031L18.3555 28.332C18.556 28.2174 18.7708 28.1602 19 28.1602C19.2578 28.1602 19.487 28.2174 19.6875 28.332L29.2695 33.7461C29.4128 33.8034 29.5703 33.832 29.7422 33.832C29.9141 33.8034 30.0573 33.7318 30.1719 33.6172C30.2865 33.5312 30.3581 33.4023 30.3867 33.2305C30.444 33.0586 30.444 32.901 30.3867 32.7578L26.4336 23.6914C26.2904 23.3763 26.2617 23.0612 26.3477 22.7461C26.4622 22.431 26.6484 22.1875 26.9062 22.0156L33.9531 17.0742C34.0391 16.9883 34.0964 16.888 34.125 16.7734C34.1536 16.6302 34.1393 16.5013 34.082 16.3867C34.0247 16.2721 33.9388 16.1862 33.8242 16.1289C33.7096 16.043 33.5807 16 33.4375 16C33.4375 16 33.4232 16 33.3945 16H25.1875C24.901 16 24.6289 15.9284 24.3711 15.7852C24.1419 15.6133 23.9844 15.3841 23.8984 15.0977L19.6875 4.05469C19.6016 3.9401 19.5013 3.85417 19.3867 3.79688C19.2721 3.71094 19.1432 3.66797 19 3.66797C18.8568 3.66797 18.7279 3.71094 18.6133 3.79688C18.4987 3.85417 18.3984 3.9401 18.3125 4.05469ZM15.8633 2.80859C16.1784 2.23568 16.6081 1.77734 17.1523 1.43359C17.7253 1.08984 18.3411 0.917969 19 0.917969C19.6589 0.917969 20.2604 1.08984 20.8047 1.43359C21.3776 1.77734 21.8216 2.23568 22.1367 2.80859C22.1654 2.83724 22.1797 2.86589 22.1797 2.89453C22.2083 2.92318 22.2227 2.95182 22.2227 2.98047L26.1328 13.25H33.3945C34.082 13.2214 34.7266 13.4076 35.3281 13.8086C35.9297 14.181 36.3594 14.6966 36.6172 15.3555C36.9036 16.0143 36.9609 16.7018 36.7891 17.418C36.6172 18.1055 36.2734 18.6927 35.7578 19.1797C35.7292 19.1797 35.7005 19.194 35.6719 19.2227C35.6432 19.2513 35.6289 19.2656 35.6289 19.2656L29.3984 23.6055L32.9219 31.6836C33.2083 32.3997 33.2656 33.1302 33.0938 33.875C32.9219 34.5911 32.5495 35.207 31.9766 35.7227C31.4036 36.2096 30.7448 36.4961 30 36.582C29.2552 36.6393 28.5534 36.4818 27.8945 36.1094L19 31.125L10.1055 36.1094C9.44661 36.4818 8.74479 36.6393 8 36.582C7.25521 36.4961 6.59635 36.2096 6.02344 35.7227C5.45052 35.207 5.07812 34.5911 4.90625 33.875C4.73438 33.1302 4.79167 32.3997 5.07812 31.6836L8.60156 23.6055L2.37109 19.2656C2.37109 19.2656 2.35677 19.2513 2.32812 19.2227C2.29948 19.194 2.28516 19.1797 2.28516 19.1797C1.74089 18.6927 1.38281 18.1055 1.21094 17.418C1.03906 16.7305 1.09635 16.043 1.38281 15.3555C1.64062 14.6966 2.05599 14.181 2.62891 13.8086C3.23047 13.4076 3.88932 13.2214 4.60547 13.25H11.8672L15.7773 2.98047C15.7773 2.95182 15.7773 2.92318 15.7773 2.89453C15.806 2.86589 15.8346 2.83724 15.8633 2.80859Z" fill="#2B2D42"/>
</svg>
