<?xml version="1.0" encoding="UTF-8" standalone="no"?>
<!DOCTYPE svg PUBLIC "-//W3C//DTD SVG 1.1//EN" "http://www.w3.org/Graphics/SVG/1.1/DTD/svg11.dtd">
<svg width="100%" height="100%" viewBox="0 0 38 37" version="1.1" xmlns="http://www.w3.org/2000/svg" xmlns:xlink="http://www.w3.org/1999/xlink" xml:space="preserve" xmlns:serif="http://www.serif.com/" style="fill-rule:evenodd;clip-rule:evenodd;stroke-linejoin:round;stroke-miterlimit:2;">
    <path d="M15.863,2.809C16.178,2.236 16.608,1.777 17.152,1.434C17.725,1.09 18.341,0.918 19,0.918C19.659,0.918 20.26,1.09 20.805,1.434C21.378,1.777 21.822,2.236 22.137,2.809C22.165,2.837 22.18,2.866 22.18,2.895C22.208,2.923 22.223,2.952 22.223,2.98L26.133,13.25L33.395,13.25C34.082,13.221 34.727,13.408 35.328,13.809C35.93,14.181 36.359,14.697 36.617,15.355C36.904,16.014 36.961,16.702 36.789,17.418C36.617,18.106 36.273,18.693 35.758,19.18C35.729,19.18 35.701,19.194 35.672,19.223L35.629,19.266L29.398,23.606L32.922,31.684C33.208,32.4 33.266,33.13 33.094,33.875C32.922,34.591 32.55,35.207 31.977,35.723C31.404,36.21 30.745,36.496 30,36.582C29.255,36.639 28.553,36.482 27.895,36.109L19,31.125L10.105,36.109C9.447,36.482 8.745,36.639 8,36.582C7.255,36.496 6.596,36.21 6.023,35.723C5.451,35.207 5.078,34.591 4.906,33.875C4.734,33.13 4.792,32.4 5.078,31.684L8.602,23.606L2.371,19.266L2.328,19.223L2.285,19.18C1.741,18.693 1.383,18.106 1.211,17.418C1.039,16.731 1.096,16.043 1.383,15.355C1.641,14.697 2.056,14.181 2.629,13.809C3.23,13.408 3.889,13.221 4.605,13.25L11.867,13.25L15.777,2.98L15.777,2.895L15.863,2.809Z" style="fill:rgb(43,45,66);"/>
    <path d="M18.313,4.055L14.102,15.098C14.016,15.384 13.844,15.613 13.586,15.785C13.357,15.928 13.099,16 12.813,16L4.52,16C4.405,16 4.29,16.043 4.176,16.129C4.061,16.186 3.975,16.272 3.918,16.387C3.861,16.501 3.846,16.63 3.875,16.773C3.904,16.888 3.961,16.988 4.047,17.074L11.094,22.016C11.38,22.188 11.566,22.431 11.652,22.746C11.738,23.061 11.71,23.376 11.566,23.691L7.613,32.758C7.556,32.901 7.542,33.059 7.57,33.231C7.628,33.402 7.714,33.531 7.828,33.617C7.943,33.732 8.086,33.803 8.258,33.832C8.43,33.832 8.587,33.803 8.73,33.746L8.773,33.703L18.356,28.332C18.556,28.217 18.771,28.16 19,28.16C19.258,28.16 19.487,28.217 19.688,28.332L29.27,33.746C29.413,33.803 29.57,33.832 29.742,33.832C29.914,33.803 30.057,33.732 30.172,33.617C30.287,33.531 30.358,33.402 30.387,33.231C30.444,33.059 30.444,32.901 30.387,32.758L26.434,23.691C26.29,23.376 26.262,23.061 26.348,22.746C26.462,22.431 26.648,22.188 26.906,22.016L33.953,17.074C34.039,16.988 34.096,16.888 34.125,16.773C34.154,16.63 34.139,16.501 34.082,16.387C34.025,16.272 33.939,16.186 33.824,16.129C33.71,16.043 33.581,16 33.438,16L25.188,16C24.901,16 24.629,15.928 24.371,15.785C24.142,15.613 23.984,15.384 23.898,15.098L19.688,4.055C19.602,3.94 19.501,3.854 19.387,3.797C19.272,3.711 19.143,3.668 19,3.668C18.857,3.668 18.728,3.711 18.613,3.797C18.499,3.854 18.398,3.94 18.313,4.055Z" style="fill:#DAF2FC;"/>
</svg>
