<svg width="8" height="13" viewBox="0 0 8 13" fill="none" xmlns="http://www.w3.org/2000/svg">
<path d="M0.71875 1.14453C0.864583 0.998698 1.03776 0.925781 1.23828 0.925781C1.45703 0.925781 1.64844 0.998698 1.8125 1.14453L7.41797 6.75L1.8125 12.3555C1.64844 12.5013 1.45703 12.5742 1.23828 12.5742C1.03776 12.5742 0.864583 12.5013 0.71875 12.3555C0.572917 12.2096 0.5 12.0365 0.5 11.8359C0.5 11.6172 0.572917 11.4349 0.71875 11.2891L5.25781 6.75L0.71875 2.21094C0.572917 2.0651 0.5 1.89193 0.5 1.69141C0.5 1.47266 0.572917 1.29036 0.71875 1.14453Z" fill="#003D58"/>
</svg>
